HIERARCHY
ROOT Joint1
{
	OFFSET 0.000000 0.000000 0.000000
	CHANNELS 6 Xposition Yposition Zposition Xrotation Yrotation Zrotation
	JOINT Joint2
	{
		OFFSET -0.000000 0.000000 1.456275
		CHANNELS 6 Xposition Yposition Zposition Xrotation Yrotation Zrotation
		JOINT Joint3
		{
			OFFSET -0.000000 0.000002 1.471446
			CHANNELS 6 Xposition Yposition Zposition Xrotation Yrotation Zrotation
			JOINT Joint4
			{
				OFFSET 0.625745 0.000000 0.917755
				CHANNELS 6 Xposition Yposition Zposition Xrotation Yrotation Zrotation
				JOINT Joint5
				{
					OFFSET -0.629534 0.000001 0.940221
					CHANNELS 6 Xposition Yposition Zposition Xrotation Yrotation Zrotation
					JOINT Joint6
					{
						OFFSET -0.000001 0.113772 1.960660
						CHANNELS 6 Xposition Yposition Zposition Xrotation Yrotation Zrotation
						JOINT Joint7
						{
							OFFSET -0.669733 -0.113771 0.388340
							CHANNELS 6 Xposition Yposition Zposition Xrotation Yrotation Zrotation
							End Site
							{
								OFFSET 0.005509 0.005509 0.438980
							}
						}
					}
				}
			}
		}
	}
}
MOTION
Frames: 12
Frame Time: 0.041667
0.000000 0.000000 0.000000 -0.000000 1.019410 32.645658 -0.000000 -0.000000 1.456275 0.000000 9.415960 -0.000003 -0.000000 0.000002 1.471445 -0.000003 -1.133463 -67.521174 0.625744 0.000000 0.917755 0.000026 100.409204 -0.000001 -0.629534 0.000001 0.940221 -0.000003 1.709733 145.763122 -0.000001 0.113772 1.960661 -88.303882 -172.655065 0.000002 -0.669733 -0.113770 0.388340 -0.144678 1.701309 -11.539811 
0.000000 0.000000 0.000000 -0.000000 1.019410 32.628705 -0.000000 0.000000 1.456275 -0.000000 9.387716 -0.000000 -0.000000 0.000002 1.471446 -0.000003 -1.133464 -67.486135 0.625745 0.000000 0.917755 -0.000006 100.427174 -0.000001 -0.629534 0.000001 0.940221 -0.000003 1.709736 145.687416 -0.000001 0.113771 1.960661 -88.303882 -172.705623 0.000004 -0.669733 -0.113771 0.388340 -0.143556 1.702053 -11.463790 
0.000000 0.000000 0.000000 -0.000000 1.019410 32.597870 -0.000000 -0.000000 1.456275 0.000000 9.336333 -0.000001 -0.000000 0.000002 1.471445 -0.000003 -1.133464 -67.422389 0.625745 0.000000 0.917755 0.000014 100.459870 -0.000007 -0.629534 0.000001 0.940221 -0.000001 1.709736 145.549733 -0.000001 0.113772 1.960660 -88.303875 -172.797584 -0.000002 -0.669733 -0.113771 0.388340 -0.141506 1.703411 -11.325504 
0.000000 0.000000 0.000000 -0.000000 1.019410 32.551032 -0.000000 0.000000 1.456275 0.000000 9.258294 -0.000000 -0.000000 0.000002 1.471445 -0.000003 -1.133464 -67.325571 0.625744 0.000000 0.917755 0.000019 100.509519 -0.000018 -0.629534 0.000001 0.940221 -0.000002 1.709734 145.340579 -0.000001 0.113772 1.960660 -88.303882 -172.937275 0.000002 -0.669733 -0.113771 0.388341 -0.138406 1.705485 -11.115466 
0.000000 0.000000 0.000000 -0.000000 1.019410 32.486077 -0.000000 -0.000000 1.456275 -0.000000 9.150069 0.000001 -0.000000 0.000002 1.471446 -0.000003 -1.133464 -67.191310 0.625745 0.000000 0.917755 0.000001 100.578395 -0.000015 -0.629534 0.000001 0.940221 -0.000005 1.709735 145.050555 -0.000001 0.113772 1.960661 -88.303875 -173.130993 0.000002 -0.669733 -0.113771 0.388340 -0.134118 1.708378 -10.824192 
0.000000 0.000000 0.000000 -0.000000 1.019410 32.400894 -0.000000 0.000000 1.456275 -0.000000 9.008144 -0.000003 -0.000000 0.000002 1.471446 -0.000003 -1.133466 -67.015227 0.625745 0.000000 0.917755 -0.000009 100.668724 0.000005 -0.629533 0.000001 0.940221 -0.000001 1.709733 144.670209 -0.000001 0.113772 1.960660 -88.303882 -173.385035 -0.000000 -0.669734 -0.113771 0.388341 -0.128519 1.712208 -10.442202 
0.000000 0.000000 0.000000 -0.000000 1.019410 32.293367 -0.000000 -0.000000 1.456275 -0.000000 8.828985 -0.000001 -0.000000 0.000002 1.471445 -0.000002 -1.133464 -66.792966 0.625745 0.000000 0.917755 0.000003 100.782727 0.000003 -0.629534 0.000001 0.940221 -0.000005 1.709734 144.190102 -0.000001 0.113772 1.960660 -88.303882 -173.705726 0.000003 -0.669733 -0.113771 0.388341 -0.121483 1.717096 -9.960011 
0.000000 0.000000 0.000000 -0.000000 1.019410 32.161383 -0.000000 0.000000 1.456275 -0.000000 8.609076 -0.000002 -0.000000 0.000002 1.471445 -0.000003 -1.133465 -66.520134 0.625745 0.000000 0.917755 0.000008 100.922677 -0.000013 -0.629534 0.000001 0.940221 -0.000000 1.709734 143.600766 -0.000001 0.113772 1.960660 -88.303875 -174.099336 -0.000000 -0.669733 -0.113771 0.388340 -0.112909 1.723172 -9.368144 
0.000000 0.000000 0.000000 -0.000000 1.019410 32.002821 -0.000000 0.000000 1.456275 0.000001 8.344891 0.000002 -0.000000 0.000002 1.471445 -0.000003 -1.133464 -66.192388 0.625745 0.000000 0.917755 -0.000003 101.090795 0.000003 -0.629534 0.000001 0.940221 -0.000004 1.709734 142.892776 -0.000001 0.113772 1.960660 -88.303882 -174.572218 -0.000001 -0.669733 -0.113771 0.388341 -0.102688 1.730588 -8.657109 
0.000000 0.000000 0.000000 -0.000000 1.019410 31.815571 -0.000000 -0.000000 1.456275 0.000000 8.032906 -0.000004 -0.000000 0.000002 1.471446 -0.000003 -1.133465 -65.805335 0.625745 0.000000 0.917755 0.000012 101.289335 -0.000019 -0.629534 0.000001 0.940221 -0.000002 1.709733 142.056706 -0.000001 0.113772 1.960660 -88.303882 -175.130668 -0.000001 -0.669733 -0.113771 0.388339 -0.090740 1.739511 -7.817425 
0.000000 0.000000 0.000000 -0.000000 1.019410 31.597517 -0.000000 0.000000 1.456275 0.000000 7.669601 0.000001 -0.000000 0.000002 1.471446 -0.000003 -1.133465 -65.354617 0.625745 0.000000 0.917755 0.000001 101.520530 -0.000027 -0.629534 0.000001 0.940221 -0.000001 1.709734 141.083090 -0.000001 0.113772 1.960661 -88.303882 -175.780956 0.000002 -0.669733 -0.113771 0.388340 -0.076990 1.750120 -6.839609 
0.000000 0.000000 0.000000 -0.000000 1.019410 31.349195 -0.000000 -0.000000 1.456275 -0.000000 7.255855 -0.000000 -0.000000 0.000002 1.471445 -0.000003 -1.133464 -64.841308 0.625745 0.000000 0.917755 0.000019 101.783827 -0.000016 -0.629533 0.000001 0.940221 -0.000003 1.709734 139.974291 -0.000001 0.113772 1.960661 -88.303882 -176.521540 -0.000003 -0.669733 -0.113771 0.388340 -0.061560 1.762489 -5.726031 
